<svg width="763" height="211" viewBox="0 0 763 211" fill="none" xmlns="http://www.w3.org/2000/svg">
<path fill-rule="evenodd" clip-rule="evenodd" d="M24.9001 164.094C8.29808 149.582 0 129.803 0 104.763C0 79.8048 8.29808 60.0728 24.9001 45.573C26.4339 44.234 28.0379 42.9497 29.712 41.72C30.5571 41.0994 31.42 40.4926 32.3008 39.8998C51.0208 27.3013 77.8154 21 112.681 21C152.449 21 181.717 29.193 200.485 45.573C217.081 60.0728 225.385 79.8048 225.385 104.763C225.385 129.803 217.081 149.582 200.485 164.094C193.732 169.984 185.618 174.813 176.146 178.583C167.359 182.081 157.401 184.666 146.274 186.339C136.062 187.875 124.864 188.643 112.681 188.643C100.501 188.643 89.3066 187.875 79.0969 186.339C58.7052 183.272 42.2431 177.14 29.712 167.944C28.0379 166.715 26.4339 165.432 24.9001 164.094ZM99.466 56.6945C100.435 55.62 101.983 55.2696 103.326 55.7952C104.675 56.3266 105.563 57.6346 105.563 59.0945V64.3983V82.4004C105.563 83.2997 105.224 84.1639 104.622 84.8121L85.7663 105.134L104.617 125.45C105.224 126.11 105.563 126.974 105.563 127.873V145.154V151.173C105.563 152.633 104.675 153.947 103.326 154.479C102.911 154.642 102.473 154.718 102.047 154.718C101.084 154.718 100.143 154.315 99.466 153.585L86.8666 139.84L71.3016 122.86L57.2632 107.546C56.0194 106.185 56.0194 104.094 57.2632 102.734L70.7164 88.0577L88.0766 69.1192L99.466 56.6945ZM121.867 55.7952C123.21 55.2696 124.751 55.62 125.727 56.6945L136.999 68.9913L154.598 88.1903L167.929 102.734C169.173 104.094 169.173 106.179 167.929 107.54L154.026 122.707L138.184 139.989L125.727 153.579C125.055 154.315 124.109 154.718 123.146 154.718C122.719 154.718 122.281 154.642 121.867 154.479C120.518 153.947 119.63 152.633 119.63 151.173V145.17V127.873C119.63 126.974 119.969 126.11 120.576 125.45L139.432 105.134L120.582 84.8121C119.969 84.1639 119.63 83.2997 119.63 82.4004V64.3821V59.0945C119.63 57.6346 120.518 56.3266 121.867 55.7952Z" fill="#24A19C"/>
<path d="M103.326 55.7952C101.983 55.2696 100.435 55.62 99.466 56.6945L88.0766 69.1192L70.7164 88.0577L57.2632 102.734C56.0194 104.094 56.0194 106.185 57.2632 107.546L71.3016 122.86L86.8666 139.84L99.466 153.585C100.143 154.315 101.084 154.718 102.047 154.718C102.473 154.718 102.911 154.642 103.326 154.479C104.675 153.947 105.563 152.633 105.563 151.173V145.154V127.873C105.563 126.974 105.224 126.11 104.617 125.45L85.7663 105.134L104.622 84.8121C105.224 84.1639 105.563 83.2997 105.563 82.4004V64.3983V59.0945C105.563 57.6346 104.675 56.3266 103.326 55.7952Z" fill="white"/>
<path d="M125.727 56.6945C124.751 55.62 123.21 55.2696 121.867 55.7952C120.518 56.3266 119.63 57.6346 119.63 59.0945V64.3821V82.4004C119.63 83.2997 119.969 84.1639 120.582 84.8121L139.432 105.134L120.576 125.45C119.969 126.11 119.63 126.974 119.63 127.873V145.17V151.173C119.63 152.633 120.518 153.947 121.867 154.479C122.281 154.642 122.719 154.718 123.146 154.718C124.109 154.718 125.055 154.315 125.727 153.579L138.184 139.989L154.026 122.707L167.929 107.54C169.173 106.179 169.173 104.094 167.929 102.734L154.598 88.1903L136.999 68.9913L125.727 56.6945Z" fill="white"/>
<path d="M355.388 34.886V39.874H328.9V62.32H351.26V67.308H328.9V95H322.88V34.886H355.388ZM362.54 71.436C362.54 66.62 363.486 62.406 365.378 58.794C367.327 55.1247 369.993 52.3153 373.376 50.366C376.816 48.3593 380.686 47.356 384.986 47.356C389.458 47.356 393.299 48.388 396.51 50.452C399.778 52.516 402.129 55.1533 403.562 58.364V48.044H409.582V95H403.562V84.594C402.071 87.8047 399.692 90.4707 396.424 92.592C393.213 94.656 389.372 95.688 384.9 95.688C380.657 95.688 376.816 94.6847 373.376 92.678C369.993 90.6713 367.327 87.8333 365.378 84.164C363.486 80.4947 362.54 76.252 362.54 71.436ZM403.562 71.522C403.562 67.738 402.788 64.4127 401.24 61.546C399.692 58.6793 397.571 56.472 394.876 54.924C392.239 53.376 389.315 52.602 386.104 52.602C382.779 52.602 379.797 53.3473 377.16 54.838C374.523 56.3287 372.43 58.5073 370.882 61.374C369.391 64.1833 368.646 67.5373 368.646 71.436C368.646 75.2773 369.391 78.66 370.882 81.584C372.43 84.4507 374.523 86.658 377.16 88.206C379.797 89.6967 382.779 90.442 386.104 90.442C389.315 90.442 392.239 89.668 394.876 88.12C397.571 86.572 399.692 84.3647 401.24 81.498C402.788 78.6313 403.562 75.306 403.562 71.522ZM426.335 39.186C425.131 39.186 424.099 38.756 423.239 37.896C422.379 37.036 421.949 35.9753 421.949 34.714C421.949 33.4527 422.379 32.4207 423.239 31.618C424.099 30.758 425.131 30.328 426.335 30.328C427.539 30.328 428.571 30.758 429.431 31.618C430.291 32.4207 430.721 33.4527 430.721 34.714C430.721 35.9753 430.291 37.036 429.431 37.896C428.571 38.756 427.539 39.186 426.335 39.186ZM429.345 48.044V95H423.325V48.044H429.345ZM459.146 95.688C453.756 95.688 449.342 94.4553 445.902 91.99C442.519 89.4673 440.627 86.056 440.226 81.756H446.418C446.704 84.3933 447.937 86.5433 450.116 88.206C452.352 89.8113 455.333 90.614 459.06 90.614C462.328 90.614 464.879 89.84 466.714 88.292C468.606 86.744 469.552 84.8233 469.552 82.53C469.552 80.9247 469.036 79.606 468.004 78.574C466.972 77.542 465.653 76.7393 464.048 76.166C462.5 75.5353 460.378 74.876 457.684 74.188C454.186 73.2707 451.348 72.3533 449.17 71.436C446.991 70.5187 445.128 69.1713 443.58 67.394C442.089 65.5593 441.344 63.1227 441.344 60.084C441.344 57.7907 442.032 55.6693 443.408 53.72C444.784 51.7707 446.733 50.2227 449.256 49.076C451.778 47.9293 454.645 47.356 457.856 47.356C462.901 47.356 466.972 48.646 470.068 51.226C473.164 53.7487 474.826 57.246 475.056 61.718H469.036C468.864 58.966 467.774 56.7587 465.768 55.096C463.818 53.376 461.124 52.516 457.684 52.516C454.645 52.516 452.18 53.2327 450.288 54.666C448.396 56.0993 447.45 57.8767 447.45 59.998C447.45 61.8327 447.994 63.352 449.084 64.556C450.23 65.7027 451.635 66.62 453.298 67.308C454.96 67.9387 457.196 68.6553 460.006 69.458C463.388 70.3753 466.083 71.264 468.09 72.124C470.096 72.984 471.816 74.2453 473.25 75.908C474.683 77.5707 475.428 79.778 475.486 82.53C475.486 85.0527 474.798 87.3173 473.422 89.324C472.046 91.2733 470.125 92.8213 467.66 93.968C465.194 95.1147 462.356 95.688 459.146 95.688Z" fill="#373737"/>
<path d="M375.752 108.864V125.056H358.456V174H338.032V125.056H320.92V108.864H375.752ZM414.043 174L401.807 150.632H401.715V174H381.291V108.864H411.651C416.926 108.864 421.434 109.815 425.175 111.716C428.917 113.556 431.707 116.101 433.547 119.352C435.449 122.541 436.399 126.16 436.399 130.208C436.399 134.563 435.173 138.427 432.719 141.8C430.327 145.173 426.862 147.596 422.323 149.068L436.491 174H414.043ZM401.715 137.016H409.811C411.774 137.016 413.246 136.587 414.227 135.728C415.209 134.808 415.699 133.397 415.699 131.496C415.699 129.779 415.178 128.429 414.135 127.448C413.154 126.467 411.713 125.976 409.811 125.976H401.715V137.016ZM474.664 174.644C468.531 174.644 462.888 173.203 457.736 170.32C452.646 167.437 448.598 163.451 445.592 158.36C442.587 153.269 441.084 147.535 441.084 141.156C441.084 134.777 442.587 129.043 445.592 123.952C448.598 118.861 452.646 114.905 457.736 112.084C462.888 109.201 468.531 107.76 474.664 107.76C480.798 107.76 486.41 109.201 491.5 112.084C496.591 114.905 500.608 118.861 503.552 123.952C506.558 129.043 508.06 134.777 508.06 141.156C508.06 147.535 506.558 153.269 503.552 158.36C500.608 163.451 496.56 167.437 491.408 170.32C486.318 173.203 480.736 174.644 474.664 174.644ZM474.664 155.6C478.712 155.6 481.84 154.312 484.048 151.736C486.256 149.099 487.36 145.572 487.36 141.156C487.36 136.679 486.256 133.152 484.048 130.576C481.84 127.939 478.712 126.62 474.664 126.62C470.555 126.62 467.396 127.939 465.188 130.576C462.98 133.152 461.876 136.679 461.876 141.156C461.876 145.572 462.98 149.099 465.188 151.736C467.396 154.312 470.555 155.6 474.664 155.6ZM558.3 184.58L552.044 174.276C550.633 174.521 549.008 174.644 547.168 174.644C541.035 174.644 535.392 173.203 530.24 170.32C525.149 167.437 521.101 163.451 518.096 158.36C515.091 153.269 513.588 147.535 513.588 141.156C513.588 134.777 515.091 129.043 518.096 123.952C521.101 118.861 525.149 114.905 530.24 112.084C535.392 109.201 541.035 107.76 547.168 107.76C553.301 107.76 558.913 109.201 564.004 112.084C569.095 114.905 573.112 118.861 576.056 123.952C579.061 129.043 580.564 134.777 580.564 141.156C580.564 146.369 579.552 151.184 577.528 155.6C575.504 159.955 572.713 163.665 569.156 166.732L582.404 184.58H558.3ZM534.38 141.156C534.38 145.572 535.484 149.099 537.692 151.736C539.9 154.312 543.059 155.6 547.168 155.6C551.216 155.6 554.344 154.312 556.552 151.736C558.76 149.099 559.864 145.572 559.864 141.156C559.864 136.679 558.76 133.152 556.552 130.576C554.344 127.939 551.216 126.62 547.168 126.62C543.059 126.62 539.9 127.939 537.692 130.576C535.484 133.152 534.38 136.679 534.38 141.156ZM607.896 108.864V145.572C607.896 148.577 608.54 150.969 609.828 152.748C611.177 154.465 613.324 155.324 616.268 155.324C619.212 155.324 621.389 154.465 622.8 152.748C624.211 150.969 624.916 148.577 624.916 145.572V108.864H645.248V145.572C645.248 151.767 643.96 157.072 641.384 161.488C638.808 165.843 635.281 169.124 630.804 171.332C626.327 173.54 621.328 174.644 615.808 174.644C610.288 174.644 605.381 173.54 601.088 171.332C596.856 169.124 593.544 165.843 591.152 161.488C588.76 157.133 587.564 151.828 587.564 145.572V108.864H607.896ZM674.481 125.148V133.152H694.721V148.516H674.481V157.716H697.481V174H654.057V108.864H697.481V125.148H674.481ZM737.93 174L725.694 150.632H725.602V174H705.178V108.864H735.538C740.813 108.864 745.321 109.815 749.062 111.716C752.803 113.556 755.594 116.101 757.434 119.352C759.335 122.541 760.286 126.16 760.286 130.208C760.286 134.563 759.059 138.427 756.606 141.8C754.214 145.173 750.749 147.596 746.21 149.068L760.378 174H737.93ZM725.602 137.016H733.698C735.661 137.016 737.133 136.587 738.114 135.728C739.095 134.808 739.586 133.397 739.586 131.496C739.586 129.779 739.065 128.429 738.022 127.448C737.041 126.467 735.599 125.976 733.698 125.976H725.602V137.016Z" fill="#373737"/>
<rect x="273" y="21" width="4" height="168" fill="#E7E7E7"/>
</svg>
